<mxfile host="app.diagrams.net" modified="2020-12-20T20:06:25.075Z" agent="5.0 (Windows)" etag="rGY7ybE3gpJfho_4DNTH" version="14.1.1" type="github">
  <diagram id="lo4UK6vVF-4UpODu58wT" name="Page-1">
    <mxGraphModel dx="1865" dy="587" grid="1" gridSize="10" guides="1" tooltips="1" connect="1" arrows="1" fold="1" page="1" pageScale="1" pageWidth="827" pageHeight="1169" math="0" shadow="0">
      <root>
        <mxCell id="0" />
        <mxCell id="1" parent="0" />
        <mxCell id="t8Lj_CVc9r9Yu0F6UWp1-1" value="Controller:ShopController" style="shape=umlLifeline;perimeter=lifelinePerimeter;whiteSpace=wrap;html=1;container=1;collapsible=0;recursiveResize=0;outlineConnect=0;" vertex="1" parent="1">
          <mxGeometry x="160" y="40" width="170" height="1520" as="geometry" />
        </mxCell>
        <mxCell id="t8Lj_CVc9r9Yu0F6UWp1-5" value="" style="rounded=0;whiteSpace=wrap;html=1;" vertex="1" parent="t8Lj_CVc9r9Yu0F6UWp1-1">
          <mxGeometry x="75" y="90" width="20" height="1420" as="geometry" />
        </mxCell>
        <mxCell id="t8Lj_CVc9r9Yu0F6UWp1-2" value="Service:ShopService" style="shape=umlLifeline;perimeter=lifelinePerimeter;whiteSpace=wrap;html=1;container=1;collapsible=0;recursiveResize=0;outlineConnect=0;" vertex="1" parent="1">
          <mxGeometry x="480" y="40" width="170" height="1520" as="geometry" />
        </mxCell>
        <mxCell id="t8Lj_CVc9r9Yu0F6UWp1-3" value="Dao:ShopDao" style="shape=umlLifeline;perimeter=lifelinePerimeter;whiteSpace=wrap;html=1;container=1;collapsible=0;recursiveResize=0;outlineConnect=0;" vertex="1" parent="1">
          <mxGeometry x="827" y="40" width="170" height="1520" as="geometry" />
        </mxCell>
        <mxCell id="t8Lj_CVc9r9Yu0F6UWp1-4" value="Mapper:ShopMapper" style="shape=umlLifeline;perimeter=lifelinePerimeter;whiteSpace=wrap;html=1;container=1;collapsible=0;recursiveResize=0;outlineConnect=0;" vertex="1" parent="1">
          <mxGeometry x="1160" y="40" width="170" height="1520" as="geometry" />
        </mxCell>
        <mxCell id="t8Lj_CVc9r9Yu0F6UWp1-26" value="" style="rounded=0;whiteSpace=wrap;html=1;" vertex="1" parent="t8Lj_CVc9r9Yu0F6UWp1-4">
          <mxGeometry x="75" y="545" width="20" height="80" as="geometry" />
        </mxCell>
        <mxCell id="t8Lj_CVc9r9Yu0F6UWp1-46" value="" style="rounded=0;whiteSpace=wrap;html=1;" vertex="1" parent="t8Lj_CVc9r9Yu0F6UWp1-4">
          <mxGeometry x="75" y="1150" width="20" height="80" as="geometry" />
        </mxCell>
        <mxCell id="t8Lj_CVc9r9Yu0F6UWp1-6" value="" style="rounded=0;whiteSpace=wrap;html=1;" vertex="1" parent="1">
          <mxGeometry x="555" y="320" width="20" height="1200" as="geometry" />
        </mxCell>
        <mxCell id="t8Lj_CVc9r9Yu0F6UWp1-7" value="1:modifyShopInfo(departId,shopid,ShopCreatorValidation)" style="text;html=1;strokeColor=none;fillColor=none;align=center;verticalAlign=middle;whiteSpace=wrap;rounded=0;" vertex="1" parent="1">
          <mxGeometry x="-120" y="140" width="360" height="20" as="geometry" />
        </mxCell>
        <mxCell id="t8Lj_CVc9r9Yu0F6UWp1-9" value="" style="endArrow=classic;html=1;" edge="1" parent="1" target="t8Lj_CVc9r9Yu0F6UWp1-1">
          <mxGeometry width="50" height="50" relative="1" as="geometry">
            <mxPoint x="-70" y="170" as="sourcePoint" />
            <mxPoint y="180" as="targetPoint" />
            <Array as="points">
              <mxPoint x="110" y="170" />
            </Array>
          </mxGeometry>
        </mxCell>
        <mxCell id="t8Lj_CVc9r9Yu0F6UWp1-10" value="" style="endArrow=none;html=1;dashed=1;startArrow=classic;startFill=1;endFill=0;" edge="1" parent="1">
          <mxGeometry width="50" height="50" relative="1" as="geometry">
            <mxPoint x="5.5" y="250" as="sourcePoint" />
            <mxPoint x="240" y="250" as="targetPoint" />
            <Array as="points">
              <mxPoint x="105.5" y="250" />
            </Array>
          </mxGeometry>
        </mxCell>
        <mxCell id="t8Lj_CVc9r9Yu0F6UWp1-11" value="2:return:RESOURCE_ID_OUTSCOPE" style="text;html=1;strokeColor=none;fillColor=none;align=center;verticalAlign=middle;whiteSpace=wrap;rounded=0;" vertex="1" parent="1">
          <mxGeometry x="20" y="260" width="220" height="20" as="geometry" />
        </mxCell>
        <mxCell id="t8Lj_CVc9r9Yu0F6UWp1-12" value="alt" style="shape=umlFrame;whiteSpace=wrap;html=1;" vertex="1" parent="1">
          <mxGeometry x="-140" y="180" width="430" height="120" as="geometry" />
        </mxCell>
        <mxCell id="t8Lj_CVc9r9Yu0F6UWp1-13" value="!departId.equals(shopId) &amp;amp;&amp;amp; !departId.equals(0L)" style="text;html=1;strokeColor=none;fillColor=none;align=center;verticalAlign=middle;whiteSpace=wrap;rounded=0;" vertex="1" parent="1">
          <mxGeometry x="-95" y="190" width="310" height="20" as="geometry" />
        </mxCell>
        <mxCell id="t8Lj_CVc9r9Yu0F6UWp1-14" value="" style="endArrow=classic;html=1;" edge="1" parent="1">
          <mxGeometry width="50" height="50" relative="1" as="geometry">
            <mxPoint x="250" y="350" as="sourcePoint" />
            <mxPoint x="564.5" y="350" as="targetPoint" />
            <Array as="points">
              <mxPoint x="430" y="350" />
            </Array>
          </mxGeometry>
        </mxCell>
        <mxCell id="t8Lj_CVc9r9Yu0F6UWp1-15" value="3:modifyInfo(shopid,ShopCreatorValidation)" style="text;html=1;strokeColor=none;fillColor=none;align=center;verticalAlign=middle;whiteSpace=wrap;rounded=0;" vertex="1" parent="1">
          <mxGeometry x="270" y="330" width="210" height="20" as="geometry" />
        </mxCell>
        <mxCell id="t8Lj_CVc9r9Yu0F6UWp1-16" value="" style="endArrow=none;html=1;dashed=1;startArrow=classic;startFill=1;endFill=0;" edge="1" parent="1" source="t8Lj_CVc9r9Yu0F6UWp1-1">
          <mxGeometry width="50" height="50" relative="1" as="geometry">
            <mxPoint x="337.25" y="439.5" as="sourcePoint" />
            <mxPoint x="571.75" y="439.5" as="targetPoint" />
            <Array as="points">
              <mxPoint x="437.25" y="439.5" />
            </Array>
          </mxGeometry>
        </mxCell>
        <mxCell id="t8Lj_CVc9r9Yu0F6UWp1-17" value="4:return:FIELD_NOTVALID" style="text;html=1;strokeColor=none;fillColor=none;align=center;verticalAlign=middle;whiteSpace=wrap;rounded=0;" vertex="1" parent="1">
          <mxGeometry x="335" y="450" width="220" height="20" as="geometry" />
        </mxCell>
        <mxCell id="t8Lj_CVc9r9Yu0F6UWp1-18" value="&lt;div&gt;Name == null || &lt;br&gt;&lt;/div&gt;&lt;div&gt;Name.isEmpty() || &lt;br&gt;&lt;/div&gt;&lt;div&gt;Name.isBlank()&lt;/div&gt;" style="text;html=1;strokeColor=none;fillColor=none;align=center;verticalAlign=middle;whiteSpace=wrap;rounded=0;" vertex="1" parent="1">
          <mxGeometry x="315" y="400" width="240" height="20" as="geometry" />
        </mxCell>
        <mxCell id="t8Lj_CVc9r9Yu0F6UWp1-19" value="alt" style="shape=umlFrame;whiteSpace=wrap;html=1;" vertex="1" parent="1">
          <mxGeometry x="310" y="370" width="330" height="140" as="geometry" />
        </mxCell>
        <mxCell id="t8Lj_CVc9r9Yu0F6UWp1-20" value="" style="rounded=0;whiteSpace=wrap;html=1;" vertex="1" parent="1">
          <mxGeometry x="900" y="540" width="20" height="810" as="geometry" />
        </mxCell>
        <mxCell id="t8Lj_CVc9r9Yu0F6UWp1-21" value="" style="endArrow=classic;html=1;entryX=0.05;entryY=0.135;entryDx=0;entryDy=0;entryPerimeter=0;" edge="1" parent="1">
          <mxGeometry width="50" height="50" relative="1" as="geometry">
            <mxPoint x="559" y="579" as="sourcePoint" />
            <mxPoint x="900" y="579.25" as="targetPoint" />
            <Array as="points">
              <mxPoint x="739" y="579" />
            </Array>
          </mxGeometry>
        </mxCell>
        <mxCell id="t8Lj_CVc9r9Yu0F6UWp1-22" value="5:Shop:=select(shopid)" style="text;html=1;strokeColor=none;fillColor=none;align=center;verticalAlign=middle;whiteSpace=wrap;rounded=0;" vertex="1" parent="1">
          <mxGeometry x="616" y="560" width="210" height="20" as="geometry" />
        </mxCell>
        <mxCell id="t8Lj_CVc9r9Yu0F6UWp1-24" value="" style="endArrow=classic;html=1;entryX=0.05;entryY=0.135;entryDx=0;entryDy=0;entryPerimeter=0;" edge="1" parent="1">
          <mxGeometry width="50" height="50" relative="1" as="geometry">
            <mxPoint x="910" y="610" as="sourcePoint" />
            <mxPoint x="1251" y="610.25" as="targetPoint" />
            <Array as="points">
              <mxPoint x="1090" y="610" />
            </Array>
          </mxGeometry>
        </mxCell>
        <mxCell id="t8Lj_CVc9r9Yu0F6UWp1-25" value="6:ShopPo:=selectByPrimaryKey(id)" style="text;html=1;strokeColor=none;fillColor=none;align=center;verticalAlign=middle;whiteSpace=wrap;rounded=0;" vertex="1" parent="1">
          <mxGeometry x="960" y="585" width="210" height="20" as="geometry" />
        </mxCell>
        <mxCell id="t8Lj_CVc9r9Yu0F6UWp1-27" value="" style="endArrow=none;html=1;entryX=0.05;entryY=0.135;entryDx=0;entryDy=0;entryPerimeter=0;dashed=1;startArrow=classic;startFill=1;endFill=0;" edge="1" parent="1">
          <mxGeometry width="50" height="50" relative="1" as="geometry">
            <mxPoint x="910" y="640" as="sourcePoint" />
            <mxPoint x="1251" y="640.25" as="targetPoint" />
            <Array as="points">
              <mxPoint x="1090" y="640" />
            </Array>
          </mxGeometry>
        </mxCell>
        <mxCell id="t8Lj_CVc9r9Yu0F6UWp1-28" value="7:return:obj" style="text;html=1;strokeColor=none;fillColor=none;align=center;verticalAlign=middle;whiteSpace=wrap;rounded=0;" vertex="1" parent="1">
          <mxGeometry x="970" y="650" width="210" height="20" as="geometry" />
        </mxCell>
        <mxCell id="t8Lj_CVc9r9Yu0F6UWp1-29" value="" style="endArrow=none;html=1;entryX=0.05;entryY=0.135;entryDx=0;entryDy=0;entryPerimeter=0;dashed=1;startArrow=classic;startFill=1;endFill=0;" edge="1" parent="1">
          <mxGeometry width="50" height="50" relative="1" as="geometry">
            <mxPoint x="559" y="659.5" as="sourcePoint" />
            <mxPoint x="900" y="659.75" as="targetPoint" />
            <Array as="points">
              <mxPoint x="739" y="659.5" />
            </Array>
          </mxGeometry>
        </mxCell>
        <mxCell id="t8Lj_CVc9r9Yu0F6UWp1-30" value="8:return:obj" style="text;html=1;strokeColor=none;fillColor=none;align=center;verticalAlign=middle;whiteSpace=wrap;rounded=0;" vertex="1" parent="1">
          <mxGeometry x="620" y="670" width="210" height="20" as="geometry" />
        </mxCell>
        <mxCell id="t8Lj_CVc9r9Yu0F6UWp1-31" value="" style="endArrow=none;html=1;dashed=1;startArrow=classic;startFill=1;endFill=0;" edge="1" parent="1">
          <mxGeometry width="50" height="50" relative="1" as="geometry">
            <mxPoint x="247.75" y="770" as="sourcePoint" />
            <mxPoint x="575" y="770" as="targetPoint" />
            <Array as="points">
              <mxPoint x="440.5" y="770" />
            </Array>
          </mxGeometry>
        </mxCell>
        <mxCell id="t8Lj_CVc9r9Yu0F6UWp1-32" value="9:return:RESOURCE_ID_NOTEXIST" style="text;html=1;strokeColor=none;fillColor=none;align=center;verticalAlign=middle;whiteSpace=wrap;rounded=0;" vertex="1" parent="1">
          <mxGeometry x="335" y="780" width="210" height="20" as="geometry" />
        </mxCell>
        <mxCell id="t8Lj_CVc9r9Yu0F6UWp1-33" value="alt" style="shape=umlFrame;whiteSpace=wrap;html=1;" vertex="1" parent="1">
          <mxGeometry x="320" y="710" width="330" height="140" as="geometry" />
        </mxCell>
        <mxCell id="t8Lj_CVc9r9Yu0F6UWp1-34" value="Shop =null" style="text;html=1;strokeColor=none;fillColor=none;align=center;verticalAlign=middle;whiteSpace=wrap;rounded=0;" vertex="1" parent="1">
          <mxGeometry x="395" y="730" width="80" height="20" as="geometry" />
        </mxCell>
        <mxCell id="t8Lj_CVc9r9Yu0F6UWp1-36" value="" style="endArrow=none;html=1;dashed=1;startArrow=classic;startFill=1;endFill=0;" edge="1" parent="1">
          <mxGeometry width="50" height="50" relative="1" as="geometry">
            <mxPoint x="247.75" y="950" as="sourcePoint" />
            <mxPoint x="575" y="950" as="targetPoint" />
            <Array as="points">
              <mxPoint x="440.5" y="950" />
            </Array>
          </mxGeometry>
        </mxCell>
        <mxCell id="t8Lj_CVc9r9Yu0F6UWp1-37" value="10:return:SHOP_STATE_DENIED" style="text;html=1;strokeColor=none;fillColor=none;align=center;verticalAlign=middle;whiteSpace=wrap;rounded=0;" vertex="1" parent="1">
          <mxGeometry x="330" y="970" width="210" height="20" as="geometry" />
        </mxCell>
        <mxCell id="t8Lj_CVc9r9Yu0F6UWp1-38" value="State == Shop.State.REJECTED" style="text;html=1;strokeColor=none;fillColor=none;align=center;verticalAlign=middle;whiteSpace=wrap;rounded=0;" vertex="1" parent="1">
          <mxGeometry x="330" y="920" width="215" height="20" as="geometry" />
        </mxCell>
        <mxCell id="t8Lj_CVc9r9Yu0F6UWp1-39" value="alt" style="shape=umlFrame;whiteSpace=wrap;html=1;" vertex="1" parent="1">
          <mxGeometry x="320" y="880" width="330" height="140" as="geometry" />
        </mxCell>
        <mxCell id="t8Lj_CVc9r9Yu0F6UWp1-40" value="" style="html=1;points=[];perimeter=orthogonalPerimeter;" vertex="1" parent="1">
          <mxGeometry x="575" y="1090" width="10" height="40" as="geometry" />
        </mxCell>
        <mxCell id="t8Lj_CVc9r9Yu0F6UWp1-41" value="11:setGmtModified(now())" style="edgeStyle=orthogonalEdgeStyle;html=1;align=left;spacingLeft=2;endArrow=block;rounded=0;entryX=1;entryY=0;dashed=1;" edge="1" target="t8Lj_CVc9r9Yu0F6UWp1-40" parent="1">
          <mxGeometry relative="1" as="geometry">
            <mxPoint x="580" y="1070" as="sourcePoint" />
            <Array as="points">
              <mxPoint x="605" y="1070" />
            </Array>
          </mxGeometry>
        </mxCell>
        <mxCell id="t8Lj_CVc9r9Yu0F6UWp1-42" value="" style="endArrow=classic;html=1;entryX=0.05;entryY=0.135;entryDx=0;entryDy=0;entryPerimeter=0;" edge="1" parent="1">
          <mxGeometry width="50" height="50" relative="1" as="geometry">
            <mxPoint x="570" y="1169" as="sourcePoint" />
            <mxPoint x="911" y="1169.25" as="targetPoint" />
            <Array as="points">
              <mxPoint x="750" y="1169" />
            </Array>
          </mxGeometry>
        </mxCell>
        <mxCell id="t8Lj_CVc9r9Yu0F6UWp1-43" value="12:Shopin:=update(shopid)" style="text;html=1;strokeColor=none;fillColor=none;align=center;verticalAlign=middle;whiteSpace=wrap;rounded=0;" vertex="1" parent="1">
          <mxGeometry x="627" y="1150" width="210" height="20" as="geometry" />
        </mxCell>
        <mxCell id="t8Lj_CVc9r9Yu0F6UWp1-44" value="13:updateByPrimaryKeySelective(id)" style="text;html=1;strokeColor=none;fillColor=none;align=center;verticalAlign=middle;whiteSpace=wrap;rounded=0;" vertex="1" parent="1">
          <mxGeometry x="945" y="1180" width="235" height="20" as="geometry" />
        </mxCell>
        <mxCell id="t8Lj_CVc9r9Yu0F6UWp1-45" value="" style="endArrow=classic;html=1;entryX=0.05;entryY=0.135;entryDx=0;entryDy=0;entryPerimeter=0;" edge="1" parent="1">
          <mxGeometry width="50" height="50" relative="1" as="geometry">
            <mxPoint x="904.5" y="1210" as="sourcePoint" />
            <mxPoint x="1245.5" y="1210.25" as="targetPoint" />
            <Array as="points">
              <mxPoint x="1084.5" y="1210" />
            </Array>
          </mxGeometry>
        </mxCell>
        <mxCell id="t8Lj_CVc9r9Yu0F6UWp1-47" value="" style="endArrow=none;html=1;entryX=0.05;entryY=0.135;entryDx=0;entryDy=0;entryPerimeter=0;dashed=1;startArrow=classic;startFill=1;endFill=0;" edge="1" parent="1">
          <mxGeometry width="50" height="50" relative="1" as="geometry">
            <mxPoint x="904.5" y="1240" as="sourcePoint" />
            <mxPoint x="1245.5" y="1240.25" as="targetPoint" />
            <Array as="points">
              <mxPoint x="1084.5" y="1240" />
            </Array>
          </mxGeometry>
        </mxCell>
        <mxCell id="t8Lj_CVc9r9Yu0F6UWp1-48" value="14:return:obj" style="text;html=1;strokeColor=none;fillColor=none;align=center;verticalAlign=middle;whiteSpace=wrap;rounded=0;" vertex="1" parent="1">
          <mxGeometry x="947.5" y="1250" width="235" height="20" as="geometry" />
        </mxCell>
        <mxCell id="t8Lj_CVc9r9Yu0F6UWp1-49" value="" style="endArrow=none;html=1;entryX=0.05;entryY=0.135;entryDx=0;entryDy=0;entryPerimeter=0;dashed=1;startArrow=classic;startFill=1;endFill=0;" edge="1" parent="1">
          <mxGeometry width="50" height="50" relative="1" as="geometry">
            <mxPoint x="560" y="1290" as="sourcePoint" />
            <mxPoint x="901" y="1290.25" as="targetPoint" />
            <Array as="points">
              <mxPoint x="740" y="1290" />
            </Array>
          </mxGeometry>
        </mxCell>
        <mxCell id="t8Lj_CVc9r9Yu0F6UWp1-50" value="15:return:obj" style="text;html=1;strokeColor=none;fillColor=none;align=center;verticalAlign=middle;whiteSpace=wrap;rounded=0;" vertex="1" parent="1">
          <mxGeometry x="595" y="1300" width="235" height="20" as="geometry" />
        </mxCell>
        <mxCell id="t8Lj_CVc9r9Yu0F6UWp1-51" value="" style="endArrow=none;html=1;dashed=1;startArrow=classic;startFill=1;endFill=0;" edge="1" parent="1" source="t8Lj_CVc9r9Yu0F6UWp1-1">
          <mxGeometry width="50" height="50" relative="1" as="geometry">
            <mxPoint x="279.5" y="1370" as="sourcePoint" />
            <mxPoint x="575" y="1370" as="targetPoint" />
            <Array as="points">
              <mxPoint x="459.5" y="1370" />
            </Array>
          </mxGeometry>
        </mxCell>
        <mxCell id="t8Lj_CVc9r9Yu0F6UWp1-52" value="16:return:INTERNAL_SERVER_ERR" style="text;html=1;strokeColor=none;fillColor=none;align=center;verticalAlign=middle;whiteSpace=wrap;rounded=0;" vertex="1" parent="1">
          <mxGeometry x="317.5" y="1380" width="235" height="20" as="geometry" />
        </mxCell>
        <mxCell id="t8Lj_CVc9r9Yu0F6UWp1-53" value="Shopin =null" style="text;html=1;strokeColor=none;fillColor=none;align=center;verticalAlign=middle;whiteSpace=wrap;rounded=0;" vertex="1" parent="1">
          <mxGeometry x="405" y="1330" width="80" height="20" as="geometry" />
        </mxCell>
        <mxCell id="t8Lj_CVc9r9Yu0F6UWp1-54" value="alt" style="shape=umlFrame;whiteSpace=wrap;html=1;" vertex="1" parent="1">
          <mxGeometry x="317.5" y="1310" width="330" height="140" as="geometry" />
        </mxCell>
        <mxCell id="t8Lj_CVc9r9Yu0F6UWp1-55" value="" style="endArrow=none;html=1;dashed=1;startArrow=classic;startFill=1;endFill=0;" edge="1" parent="1">
          <mxGeometry width="50" height="50" relative="1" as="geometry">
            <mxPoint x="240" y="1490" as="sourcePoint" />
            <mxPoint x="570.5" y="1490" as="targetPoint" />
            <Array as="points">
              <mxPoint x="455" y="1490" />
            </Array>
          </mxGeometry>
        </mxCell>
        <mxCell id="t8Lj_CVc9r9Yu0F6UWp1-56" value="17:return:OK" style="text;html=1;strokeColor=none;fillColor=none;align=center;verticalAlign=middle;whiteSpace=wrap;rounded=0;" vertex="1" parent="1">
          <mxGeometry x="290" y="1500" width="235" height="20" as="geometry" />
        </mxCell>
      </root>
    </mxGraphModel>
  </diagram>
</mxfile>
